<svg width="83" height="94" viewBox="0 0 83 94" fill="none" xmlns="http://www.w3.org/2000/svg">
<path d="M65.9653 21.2953L64.851 25.8683L77.73 28.9774V36.3047C77.73 59.4942 63.2288 80.4801 41.5414 88.8111C19.8615 80.4876 5.35272 59.4942 5.35272 36.3047V28.9774L18.2318 25.8683L17.1174 21.2953L0.63015 25.2797V36.3123C0.63015 48.854 4.43549 60.9204 11.6444 71.1983C18.8533 81.4837 28.9125 89.211 40.7303 93.5425L41.549 93.8444L42.3676 93.5425C54.1854 89.211 64.2446 81.4837 71.4535 71.1983C78.6624 60.9128 82.4678 48.8465 82.4678 36.3123V25.2797L65.9805 21.2953H65.9653Z" fill="#FFB46D"/>
<path d="M40.5332 78.4275L41.5338 78.8954L42.5344 78.4275C50.4786 74.7224 57.3389 68.9646 62.3798 61.7731L58.4987 59.0791C54.663 64.5576 49.66 69.1155 43.8913 72.4208V28.6001H52.5405V23.8912H43.8913V14.0812C46.7415 13.1002 48.7958 10.4062 48.7958 7.23679C48.7958 3.24486 45.5362 0 41.5262 0C37.5162 0 34.2567 3.24486 34.2567 7.23679C34.2567 10.4062 36.3109 13.1002 39.1611 14.0812V23.8912H30.5119V28.6001H39.1611V72.4132C33.3925 69.108 28.3894 64.5501 24.5538 59.0716L20.6726 61.7655C25.7136 68.9571 32.5738 74.7224 40.518 78.42L40.5332 78.4275ZM41.5338 4.70882C42.9362 4.70882 44.0732 5.84075 44.0732 7.23679C44.0732 8.63284 42.9362 9.76477 41.5338 9.76477C40.1314 9.76477 38.9944 8.63284 38.9944 7.23679C38.9944 5.84075 40.1314 4.70882 41.5338 4.70882Z" fill="#ffbe80"/>
</svg>
